<?xml version="1.0" encoding="UTF-8" standalone="no"?>
<svg
   xmlns:dc="http://purl.org/dc/elements/1.1/"
   xmlns:cc="http://creativecommons.org/ns#"
   xmlns:rdf="http://www.w3.org/1999/02/22-rdf-syntax-ns#"
   xmlns:svg="http://www.w3.org/2000/svg"
   xmlns="http://www.w3.org/2000/svg"
   xmlns:sodipodi="http://sodipodi.sourceforge.net/DTD/sodipodi-0.dtd"
   xmlns:inkscape="http://www.inkscape.org/namespaces/inkscape"
   width="24px"
   height="24px"
   viewBox="0 0 24 24"
   id="a11298b2-e15e-46f5-bfd2-69e168954b14"
   data-name="Livello 1"
   version="1.1"
   sodipodi:docname="daumen.svg"
   inkscape:version="1.0.1 (3bc2e813f5, 2020-09-07)">
  <metadata
     id="metadata13">
    <rdf:RDF>
      <cc:Work
         rdf:about="">
        <dc:format>image/svg+xml</dc:format>
        <dc:type
           rdf:resource="http://purl.org/dc/dcmitype/StillImage" />
        <dc:title>prime</dc:title>
      </cc:Work>
    </rdf:RDF>
  </metadata>
  <defs
     id="defs11" />
  <sodipodi:namedview
     pagecolor="#ffffff"
     bordercolor="#666666"
     borderopacity="1"
     objecttolerance="10"
     gridtolerance="10"
     guidetolerance="10"
     inkscape:pageopacity="0"
     inkscape:pageshadow="2"
     inkscape:window-width="1920"
     inkscape:window-height="1017"
     id="namedview9"
     showgrid="false"
     inkscape:zoom="7.65625"
     inkscape:cx="7.8680636"
     inkscape:cy="6.3023092"
     inkscape:window-x="-8"
     inkscape:window-y="-8"
     inkscape:window-maximized="1"
     inkscape:current-layer="a11298b2-e15e-46f5-bfd2-69e168954b14" />
  <title
     id="title2">prime</title>
  <path
     d="M8,11.47A18.74,18.74,0,0,0,10.69,8.9a18.74,18.74,0,0,0,1.76-2.42A6.42,6.42,0,0,0,13,5.41l1.74-4.57a4.45,4.45,0,0,1,2.83,2A4,4,0,0,1,18,4.77a2.67,2.67,0,0,1-.09.55L16.72,9.05h5.22a2,2,0,0,1,2,1.85,19.32,19.32,0,0,1-.32,5.44,33.83,33.83,0,0,1-1.23,4.34,3.78,3.78,0,0,1-3.58,2.49,25.54,25.54,0,0,1-6.28-.66A45.85,45.85,0,0,1,8,21.26V11.47Z"
     id="path4"
     style="fill:#ffffff" />
  <path
     d="M5,9H1a1,1,0,0,0-1,1V22a1,1,0,0,0,1,1H5a1,1,0,0,0,1-1V10A1,1,0,0,0,5,9ZM3,21a1,1,0,1,1,1-1A1,1,0,0,1,3,21Z"
     id="path6"
     style="fill:#ffffff" />
</svg>
