<?xml version="1.0" encoding="UTF-8" standalone="no"?>
<svg
   xmlns:dc="http://purl.org/dc/elements/1.1/"
   xmlns:cc="http://creativecommons.org/ns#"
   xmlns:rdf="http://www.w3.org/1999/02/22-rdf-syntax-ns#"
   xmlns:svg="http://www.w3.org/2000/svg"
   xmlns="http://www.w3.org/2000/svg"
   xmlns:sodipodi="http://sodipodi.sourceforge.net/DTD/sodipodi-0.dtd"
   xmlns:inkscape="http://www.inkscape.org/namespaces/inkscape"
   version="1.1"
   id="Layer_1"
   x="0px"
   y="0px"
   viewBox="0 0 491.213 491.213"
   style="enable-background:new 0 0 491.213 491.213;"
   xml:space="preserve"
   sodipodi:docname="log-out-svgrepo-com.svg"
   inkscape:version="1.0.1 (3bc2e813f5, 2020-09-07)"><metadata
   id="metadata43"><rdf:RDF><cc:Work
       rdf:about=""><dc:format>image/svg+xml</dc:format><dc:type
         rdf:resource="http://purl.org/dc/dcmitype/StillImage" /></cc:Work></rdf:RDF></metadata><defs
   id="defs41" /><sodipodi:namedview
   pagecolor="#ffffff"
   bordercolor="#666666"
   borderopacity="1"
   objecttolerance="10"
   gridtolerance="10"
   guidetolerance="10"
   inkscape:pageopacity="0"
   inkscape:pageshadow="2"
   inkscape:window-width="1702"
   inkscape:window-height="971"
   id="namedview39"
   showgrid="false"
   inkscape:zoom="0.74814793"
   inkscape:cx="103.63687"
   inkscape:cy="173.71377"
   inkscape:window-x="0"
   inkscape:window-y="0"
   inkscape:window-maximized="0"
   inkscape:current-layer="Layer_1" />
<g
   id="g6"
   transform="rotate(180,245.6065,245.607)">
	<polygon
   points="146.213,175.607 176.213,175.607 176.213,33.107 461.213,33.107 461.213,458.107 176.213,458.107 176.213,315.607 146.213,315.607 146.213,488.107 491.213,488.107 491.213,3.107 146.213,3.107 "
   id="polygon2" />
	<polygon
   points="318.713,230.607 57.427,230.607 91.82,196.213 70.607,175 0,245.607 70.607,316.213 91.82,295 57.426,260.607 318.713,260.607 "
   id="polygon4" />
</g>
<g
   id="g8"
   transform="rotate(180,245.6065,245.607)">
</g>
<g
   id="g10"
   transform="rotate(180,245.6065,245.607)">
</g>
<g
   id="g12"
   transform="rotate(180,245.6065,245.607)">
</g>
<g
   id="g14"
   transform="rotate(180,245.6065,245.607)">
</g>
<g
   id="g16"
   transform="rotate(180,245.6065,245.607)">
</g>
<g
   id="g18"
   transform="rotate(180,245.6065,245.607)">
</g>
<g
   id="g20"
   transform="rotate(180,245.6065,245.607)">
</g>
<g
   id="g22"
   transform="rotate(180,245.6065,245.607)">
</g>
<g
   id="g24"
   transform="rotate(180,245.6065,245.607)">
</g>
<g
   id="g26"
   transform="rotate(180,245.6065,245.607)">
</g>
<g
   id="g28"
   transform="rotate(180,245.6065,245.607)">
</g>
<g
   id="g30"
   transform="rotate(180,245.6065,245.607)">
</g>
<g
   id="g32"
   transform="rotate(180,245.6065,245.607)">
</g>
<g
   id="g34"
   transform="rotate(180,245.6065,245.607)">
</g>
<g
   id="g36"
   transform="rotate(180,245.6065,245.607)">
</g>
</svg>
